<svg id="Capa_1" enable-background="new 0 0 512 512" height="512" viewBox="0 0 512 512" width="512" xmlns="http://www.w3.org/2000/svg"><g><path d="m480.133 0h-186.633l-20 174.269 20 337.731h186.633z" fill="#d10050"/><path d="m120 0-20 256 20 256h173.5v-512z" fill="#ff415b"/><path d="m120 0h-88.133v60l44.067 20 44.066-20z" fill="#d10050"/><path d="m120 60h-88.133v30l44.067 20 44.066-20z" fill="#ffda44"/><path d="m31.867 512h88.133v-60l-44.066-20-44.067 20z" fill="#d10050"/><path d="m31.867 452h88.133v-30l-44.066-20-44.067 20z" fill="#ffda44"/><path d="m31.867 90h88.133v332h-88.133z" fill="#d10050"/><path d="m384.5 347v-30h-91l-10 15 10 15z" fill="#efe2dd"/><path d="m354.5 407v-30h-61l-10 15 10 15z" fill="#efe2dd"/><path d="m202.5 317h91v30h-91z" fill="#fff5f5"/><path d="m232.5 377h61v30h-61z" fill="#fff5f5"/><path d="m327.378 232.948h67.757l-33.878-58.679 33.878-58.678h-67.757l-33.878-58.679-20 117.357 20 117.357v.001z" fill="#ffb655"/><path d="m259.622 115.591h-67.757l33.879 58.678-33.879 58.679h67.757l33.878 58.678v-234.714z" fill="#ffda44"/><path d="m343.174 145.591h-33.116l-16.558-28.679-20 57.357 20 57.357v.001l16.558-28.679h33.116l-16.558-28.679z" fill="#ffda44"/><path d="m276.943 145.591h-33.116l16.558 28.678-16.558 28.679h33.115l16.558 28.678v-114.714z" fill="#fff79f"/></g></svg>